<?xml version="1.0" encoding="UTF-8"?>
<!DOCTYPE svg PUBLIC "-//W3C//DTD SVG 1.1//EN" "http://www.w3.org/Graphics/SVG/1.1/DTD/svg11.dtd">
<svg xmlns="http://www.w3.org/2000/svg" xmlns:xlink="http://www.w3.org/1999/xlink" version="1.1" width="2005px" height="2008px" viewBox="-0.5 -0.5 2005 2008"><defs/><g><g><rect x="0" y="1805" width="200" height="200" fill="#6e7b86" stroke="#000000" stroke-width="5" pointer-events="all"/></g><g><rect x="200" y="1805" width="200" height="200" fill="#6e7b86" stroke="#000000" stroke-width="5" pointer-events="all"/></g><g><rect x="400" y="1805" width="200" height="200" fill="#6e7b86" stroke="#000000" stroke-width="5" pointer-events="all"/></g><g><rect x="600" y="1805" width="200" height="200" fill="#6e7b86" stroke="#000000" stroke-width="5" pointer-events="all"/></g><g><rect x="800" y="1805" width="200" height="200" fill="#6e7b86" stroke="#000000" stroke-width="5" pointer-events="all"/></g><g><rect x="1000" y="1805" width="200" height="200" fill="#6e7b86" stroke="#000000" stroke-width="5" pointer-events="all"/></g><g><rect x="1200" y="1805" width="200" height="200" fill="#6e7b86" stroke="#000000" stroke-width="5" pointer-events="all"/></g><g><rect x="1400" y="1805" width="200" height="200" fill="#6e7b86" stroke="#000000" stroke-width="5" pointer-events="all"/></g><g><rect x="1600" y="1805" width="200" height="200" fill="#6e7b86" stroke="#000000" stroke-width="5" pointer-events="all"/></g><g><rect x="400" y="1205" width="200" height="200" fill="#6e7b86" stroke="#000000" stroke-width="5" pointer-events="all"/></g><g><rect x="600" y="1205" width="200" height="200" fill="#6e7b86" stroke="#000000" stroke-width="5" pointer-events="all"/></g><g><rect x="800" y="1205" width="200" height="200" fill="#6e7b86" stroke="#000000" stroke-width="5" pointer-events="all"/></g><g><rect x="800" y="1005" width="200" height="200" fill="#6e7b86" stroke="#000000" stroke-width="5" pointer-events="all"/></g><g><rect x="800" y="805" width="200" height="200" fill="#6e7b86" stroke="#000000" stroke-width="5" pointer-events="all"/></g><g><rect x="1600" y="1605" width="200" height="200" fill="#6e7b86" stroke="#000000" stroke-width="5" pointer-events="all"/></g><g><rect x="1600" y="1405" width="200" height="200" fill="#6e7b86" stroke="#000000" stroke-width="5" pointer-events="all"/></g><g><rect x="1600" y="1205" width="200" height="200" fill="#6e7b86" stroke="#000000" stroke-width="5" pointer-events="all"/></g><g><rect x="1600" y="1005" width="200" height="200" fill="#6e7b86" stroke="#000000" stroke-width="5" pointer-events="all"/></g><g><rect x="1600" y="805" width="200" height="200" fill="#6e7b86" stroke="#000000" stroke-width="5" pointer-events="all"/></g><g><rect x="1800" y="805" width="200" height="200" fill="#6e7b86" stroke="#000000" stroke-width="5" pointer-events="all"/></g><g><path d="M 1200 105 L 1400 105" fill="none" stroke="rgb(0, 0, 0)" stroke-width="10" stroke-miterlimit="10" pointer-events="stroke"/></g><g><path d="M 1300 5 L 1300 205" fill="none" stroke="rgb(0, 0, 0)" stroke-width="10" stroke-miterlimit="10" pointer-events="stroke"/></g><g><ellipse cx="1900" cy="542.5" rx="37.5" ry="37.5" fill="rgb(255, 255, 255)" stroke="rgb(0, 0, 0)" stroke-width="10" pointer-events="all"/><path d="M 1900 580 L 1900 705 M 1900 605 L 1825 605 M 1900 605 L 1975 605 M 1900 705 L 1825 805 M 1900 705 L 1975 805" fill="none" stroke="rgb(0, 0, 0)" stroke-width="10" stroke-miterlimit="10" pointer-events="all"/></g></g></svg>