<?xml version="1.0" encoding="UTF-8"?>
<!DOCTYPE svg PUBLIC "-//W3C//DTD SVG 1.1//EN" "http://www.w3.org/Graphics/SVG/1.1/DTD/svg11.dtd">
<svg xmlns="http://www.w3.org/2000/svg" xmlns:xlink="http://www.w3.org/1999/xlink" version="1.1" width="2156px" height="2158px" viewBox="-0.5 -0.5 2156 2158"><defs/><g><g><rect x="150" y="1805" width="200" height="200" fill="#6e7b86" stroke="#000000" stroke-width="5" pointer-events="all"/></g><g><rect x="350" y="1805" width="200" height="200" fill="#6e7b86" stroke="#000000" stroke-width="5" pointer-events="all"/></g><g><rect x="550" y="1805" width="200" height="200" fill="#6e7b86" stroke="#000000" stroke-width="5" pointer-events="all"/></g><g><rect x="750" y="1805" width="200" height="200" fill="#6e7b86" stroke="#000000" stroke-width="5" pointer-events="all"/></g><g><rect x="950" y="1805" width="200" height="200" fill="#6e7b86" stroke="#000000" stroke-width="5" pointer-events="all"/></g><g><rect x="1150" y="1805" width="200" height="200" fill="#6e7b86" stroke="#000000" stroke-width="5" pointer-events="all"/></g><g><rect x="1350" y="1805" width="200" height="200" fill="#6e7b86" stroke="#000000" stroke-width="5" pointer-events="all"/></g><g><rect x="1550" y="1805" width="200" height="200" fill="#6e7b86" stroke="#000000" stroke-width="5" pointer-events="all"/></g><g><rect x="1750" y="1805" width="200" height="200" fill="#6e7b86" stroke="#000000" stroke-width="5" pointer-events="all"/></g><g><rect x="550" y="1205" width="200" height="200" fill="#6e7b86" stroke="#000000" stroke-width="5" pointer-events="all"/></g><g><rect x="750" y="1205" width="200" height="200" fill="#6e7b86" stroke="#000000" stroke-width="5" pointer-events="all"/></g><g><rect x="950" y="1205" width="200" height="200" fill="#6e7b86" stroke="#000000" stroke-width="5" pointer-events="all"/></g><g><rect x="950" y="1005" width="200" height="200" fill="#6e7b86" stroke="#000000" stroke-width="5" pointer-events="all"/></g><g><rect x="950" y="805" width="200" height="200" fill="#6e7b86" stroke="#000000" stroke-width="5" pointer-events="all"/></g><g><rect x="1750" y="1605" width="200" height="200" fill="#6e7b86" stroke="#000000" stroke-width="5" pointer-events="all"/></g><g><rect x="1750" y="1405" width="200" height="200" fill="#6e7b86" stroke="#000000" stroke-width="5" pointer-events="all"/></g><g><rect x="1750" y="1205" width="200" height="200" fill="#6e7b86" stroke="#000000" stroke-width="5" pointer-events="all"/></g><g><rect x="1750" y="1005" width="200" height="200" fill="#6e7b86" stroke="#000000" stroke-width="5" pointer-events="all"/></g><g><rect x="1750" y="805" width="200" height="200" fill="#6e7b86" stroke="#000000" stroke-width="5" pointer-events="all"/></g><g><rect x="1950" y="805" width="200" height="200" fill="#6e7b86" stroke="#000000" stroke-width="5" pointer-events="all"/></g><g><path d="M 1350 105 L 1550 105" fill="none" stroke="rgb(0, 0, 0)" stroke-width="10" stroke-miterlimit="10" pointer-events="stroke"/></g><g><path d="M 1450 5 L 1450 205" fill="none" stroke="rgb(0, 0, 0)" stroke-width="10" stroke-miterlimit="10" pointer-events="stroke"/></g><g><rect x="1350" y="1605" width="200" height="200" fill="#6e5e34" stroke="#000000" stroke-width="5" pointer-events="all"/></g><g><rect x="1150" y="1605" width="200" height="200" fill="#6e5e34" stroke="#000000" stroke-width="5" pointer-events="all"/></g><g><rect x="1550" y="1605" width="200" height="200" fill="#6e5e34" stroke="#000000" stroke-width="5" pointer-events="all"/></g><g><rect x="1350" y="1405" width="200" height="200" fill="#6e5e34" stroke="#000000" stroke-width="5" pointer-events="all"/></g><g><rect x="1150" y="1405" width="200" height="200" fill="#6e5e34" stroke="#000000" stroke-width="5" pointer-events="all"/></g><g><rect x="1550" y="1405" width="200" height="200" fill="#6e5e34" stroke="#000000" stroke-width="5" pointer-events="all"/></g><g><rect x="1350" y="1205" width="200" height="200" fill="#6e5e34" stroke="#000000" stroke-width="5" pointer-events="all"/></g><g><rect x="1150" y="1205" width="200" height="200" fill="#6e5e34" stroke="#000000" stroke-width="5" pointer-events="all"/></g><g><rect x="1550" y="1205" width="200" height="200" fill="#6e5e34" stroke="#000000" stroke-width="5" pointer-events="all"/></g><g><rect x="1350" y="1005" width="200" height="200" fill="#6e5e34" stroke="#000000" stroke-width="5" pointer-events="all"/></g><g><rect x="1150" y="1005" width="200" height="200" fill="#6e5e34" stroke="#000000" stroke-width="5" pointer-events="all"/></g><g><rect x="1550" y="1005" width="200" height="200" fill="#6e5e34" stroke="#000000" stroke-width="5" pointer-events="all"/></g><g><rect x="1350" y="805" width="200" height="200" fill="#6e5e34" stroke="#000000" stroke-width="5" pointer-events="all"/></g><g><rect x="1150" y="805" width="200" height="200" fill="#6e5e34" stroke="#000000" stroke-width="5" pointer-events="all"/></g><g><rect x="1550" y="805" width="200" height="200" fill="#6e5e34" stroke="#000000" stroke-width="5" pointer-events="all"/></g><g><rect x="1350" y="605" width="200" height="200" fill="#6e5e34" stroke="#000000" stroke-width="5" pointer-events="all"/></g><g><rect x="1150" y="605" width="200" height="200" fill="#6e5e34" stroke="#000000" stroke-width="5" pointer-events="all"/></g><g><rect x="1550" y="605" width="200" height="200" fill="#6e5e34" stroke="#000000" stroke-width="5" pointer-events="all"/></g><g><rect x="1350" y="405" width="200" height="200" fill="#6e5e34" stroke="#000000" stroke-width="5" pointer-events="all"/></g><g><rect x="750" y="1005" width="200" height="200" fill="#6e5e34" stroke="#000000" stroke-width="5" pointer-events="all"/></g><g><rect x="750" y="1605" width="200" height="200" fill="#6e5e34" stroke="#000000" stroke-width="5" pointer-events="all"/></g><g><rect x="350" y="1605" width="200" height="200" fill="#6e5e34" stroke="#000000" stroke-width="5" pointer-events="all"/></g><g><rect x="950" y="1605" width="200" height="200" fill="#6e5e34" stroke="#000000" stroke-width="5" pointer-events="all"/></g><g><rect x="950" y="1405" width="200" height="200" fill="#6e5e34" stroke="#000000" stroke-width="5" pointer-events="all"/></g><g><ellipse cx="1450" cy="300" rx="50" ry="50" fill="#6e5e34" stroke="#000000" stroke-width="5" pointer-events="all"/></g><g><ellipse cx="1250" cy="505" rx="50" ry="50" fill="#6e5e34" stroke="#000000" stroke-width="5" pointer-events="all"/></g><g><ellipse cx="1050" cy="705" rx="50" ry="50" fill="#6e5e34" stroke="#000000" stroke-width="5" pointer-events="all"/></g><g><ellipse cx="850" cy="905" rx="50" ry="50" fill="#6e5e34" stroke="#000000" stroke-width="5" pointer-events="all"/></g><g><ellipse cx="650" cy="1105" rx="50" ry="50" fill="#6e5e34" stroke="#000000" stroke-width="5" pointer-events="all"/></g><g><ellipse cx="450" cy="1305" rx="50" ry="50" fill="#6e5e34" stroke="#000000" stroke-width="5" pointer-events="all"/></g><g><ellipse cx="450" cy="1505" rx="50" ry="50" fill="#6e5e34" stroke="#000000" stroke-width="5" pointer-events="all"/></g><g><ellipse cx="250" cy="1705" rx="50" ry="50" fill="#6e5e34" stroke="#000000" stroke-width="5" pointer-events="all"/></g><g><ellipse cx="50" cy="1905" rx="50" ry="50" fill="#6e5e34" stroke="#000000" stroke-width="5" pointer-events="all"/></g><g><ellipse cx="50" cy="2105" rx="50" ry="50" fill="#6e5e34" stroke="#000000" stroke-width="5" pointer-events="all"/></g></g></svg>